# MagicaVoxel @ Ephtracy

# group
o 

# material
mtllib fishing-pole.mtl
usemtl palette

# normals
vn -1 0 0
vn 1 0 0
vn 0 0 1
vn 0 0 -1
vn 0 -1 0
vn 0 1 0

# texcoords
vt 0.00976563 0.5
vt 0.0292969 0.5
vt 0.0371094 0.5
vt 0.0527344 0.5

# verts
v -0.2 0.3 0.1
v -0.2 0.3 1.49012e-08
v -0.2 0.4 1.49012e-08
v -0.2 0.4 -0.1
v -0.2 0.6 1.49012e-08
v -0.2 0.6 -0.1
v -0.2 0.7 0.1
v -0.2 0.7 1.49012e-08
v -0.1 0 0.1
v -0.1 0 1.49012e-08
v -0.1 0.3 0.1
v -0.1 0.3 1.49012e-08
v -0.1 0.3 -0.1
v -0.1 0.4 1.49012e-08
v -0.1 0.4 -0.1
v -0.1 0.4 -0.2
v -0.1 0.6 1.49012e-08
v -0.1 0.6 -0.1
v -0.1 0.6 -0.2
v -0.1 0.7 0.1
v -0.1 0.7 1.49012e-08
v -0.1 0.7 -0.1
v -0.1 1 1.49012e-08
v -0.1 1 -0.1
v -0.1 1 -0.2
v -0.1 1.1 1.49012e-08
v -0.1 1.1 -0.1
v -0.1 1.1 -0.2
v -0.1 1.3 1.49012e-08
v -0.1 1.3 -0.1
v -0.1 1.3 -0.2
v -0.1 1.4 1.49012e-08
v -0.1 1.4 -0.1
v -0.1 1.4 -0.2
v -0.1 1.6 1.49012e-08
v -0.1 1.6 -0.1
v -0.1 1.6 -0.2
v -0.1 1.7 1.49012e-08
v -0.1 1.7 -0.1
v -0.1 1.7 -0.2
v -0.1 1.9 1.49012e-08
v -0.1 1.9 -0.1
v -0.1 1.9 -0.2
v -0.1 2 0.1
v -0.1 2 1.49012e-08
v -0.1 2 -0.1
v 0 0 0.1
v 0 0 1.49012e-08
v 0 0.3 0.1
v 0 0.3 1.49012e-08
v 0 0.3 -0.1
v 0 0.4 1.49012e-08
v 0 0.4 -0.1
v 0 0.4 -0.2
v 0 0.6 1.49012e-08
v 0 0.6 -0.1
v 0 0.6 -0.2
v 0 0.7 0.1
v 0 0.7 1.49012e-08
v 0 0.7 -0.1
v 0 1 1.49012e-08
v 0 1 -0.1
v 0 1 -0.2
v 0 1.1 1.49012e-08
v 0 1.1 -0.1
v 0 1.1 -0.2
v 0 1.3 1.49012e-08
v 0 1.3 -0.1
v 0 1.3 -0.2
v 0 1.4 1.49012e-08
v 0 1.4 -0.1
v 0 1.4 -0.2
v 0 1.6 1.49012e-08
v 0 1.6 -0.1
v 0 1.6 -0.2
v 0 1.7 1.49012e-08
v 0 1.7 -0.1
v 0 1.7 -0.2
v 0 1.9 1.49012e-08
v 0 1.9 -0.1
v 0 1.9 -0.2
v 0 2 0.1
v 0 2 1.49012e-08
v 0 2 -0.1
v 0.1 0.3 0.1
v 0.1 0.3 1.49012e-08
v 0.1 0.4 1.49012e-08
v 0.1 0.4 -0.1
v 0.1 0.6 1.49012e-08
v 0.1 0.6 -0.1
v 0.1 0.7 0.1
v 0.1 0.7 1.49012e-08
v -0.2 0.3 0.1
v -0.2 0.7 0.1
v -0.1 0 0.1
v -0.1 0.3 0.1
v -0.1 0.7 0.1
v -0.1 2 0.1
v 0 0 0.1
v 0 0.3 0.1
v 0 0.7 0.1
v 0 2 0.1
v 0.1 0.3 0.1
v 0.1 0.7 0.1
v -0.1 0.7 -0.1
v -0.1 1 -0.1
v -0.1 1.1 -0.1
v -0.1 1.3 -0.1
v -0.1 1.4 -0.1
v -0.1 1.6 -0.1
v -0.1 1.7 -0.1
v -0.1 1.9 -0.1
v 0 0.7 -0.1
v 0 1 -0.1
v 0 1.1 -0.1
v 0 1.3 -0.1
v 0 1.4 -0.1
v 0 1.6 -0.1
v 0 1.7 -0.1
v 0 1.9 -0.1
v -0.2 0.3 1.49012e-08
v -0.2 0.4 1.49012e-08
v -0.2 0.6 1.49012e-08
v -0.2 0.7 1.49012e-08
v -0.1 0 1.49012e-08
v -0.1 0.3 1.49012e-08
v -0.1 0.4 1.49012e-08
v -0.1 0.6 1.49012e-08
v -0.1 0.7 1.49012e-08
v -0.1 1 1.49012e-08
v -0.1 1.1 1.49012e-08
v -0.1 1.3 1.49012e-08
v -0.1 1.4 1.49012e-08
v -0.1 1.6 1.49012e-08
v -0.1 1.7 1.49012e-08
v -0.1 1.9 1.49012e-08
v 0 0 1.49012e-08
v 0 0.3 1.49012e-08
v 0 0.4 1.49012e-08
v 0 0.6 1.49012e-08
v 0 0.7 1.49012e-08
v 0 1 1.49012e-08
v 0 1.1 1.49012e-08
v 0 1.3 1.49012e-08
v 0 1.4 1.49012e-08
v 0 1.6 1.49012e-08
v 0 1.7 1.49012e-08
v 0 1.9 1.49012e-08
v 0.1 0.3 1.49012e-08
v 0.1 0.4 1.49012e-08
v 0.1 0.6 1.49012e-08
v 0.1 0.7 1.49012e-08
v -0.2 0.4 -0.1
v -0.2 0.6 -0.1
v -0.1 0.3 -0.1
v -0.1 0.4 -0.1
v -0.1 0.6 -0.1
v -0.1 1 -0.1
v -0.1 1.1 -0.1
v -0.1 1.3 -0.1
v -0.1 1.4 -0.1
v -0.1 1.6 -0.1
v -0.1 1.7 -0.1
v -0.1 1.9 -0.1
v -0.1 2 -0.1
v 0 0.3 -0.1
v 0 0.4 -0.1
v 0 0.6 -0.1
v 0 1 -0.1
v 0 1.1 -0.1
v 0 1.3 -0.1
v 0 1.4 -0.1
v 0 1.6 -0.1
v 0 1.7 -0.1
v 0 1.9 -0.1
v 0 2 -0.1
v 0.1 0.4 -0.1
v 0.1 0.6 -0.1
v -0.1 0.4 -0.2
v -0.1 0.6 -0.2
v -0.1 1 -0.2
v -0.1 1.1 -0.2
v -0.1 1.3 -0.2
v -0.1 1.4 -0.2
v -0.1 1.6 -0.2
v -0.1 1.7 -0.2
v -0.1 1.9 -0.2
v 0 0.4 -0.2
v 0 0.6 -0.2
v 0 1 -0.2
v 0 1.1 -0.2
v 0 1.3 -0.2
v 0 1.4 -0.2
v 0 1.6 -0.2
v 0 1.7 -0.2
v 0 1.9 -0.2
v -0.1 0 0.1
v 0 0 0.1
v -0.1 0 1.49012e-08
v 0 0 1.49012e-08
v -0.2 0.3 0.1
v -0.1 0.3 0.1
v 0 0.3 0.1
v 0.1 0.3 0.1
v -0.2 0.3 1.49012e-08
v -0.1 0.3 1.49012e-08
v 0 0.3 1.49012e-08
v 0.1 0.3 1.49012e-08
v -0.1 0.3 -0.1
v 0 0.3 -0.1
v -0.2 0.4 1.49012e-08
v -0.1 0.4 1.49012e-08
v 0 0.4 1.49012e-08
v 0.1 0.4 1.49012e-08
v -0.2 0.4 -0.1
v -0.1 0.4 -0.1
v 0 0.4 -0.1
v 0.1 0.4 -0.1
v -0.1 0.4 -0.2
v 0 0.4 -0.2
v -0.1 1 1.49012e-08
v 0 1 1.49012e-08
v -0.1 1 -0.1
v 0 1 -0.1
v -0.1 1.1 -0.1
v 0 1.1 -0.1
v -0.1 1.1 -0.2
v 0 1.1 -0.2
v -0.1 1.3 1.49012e-08
v 0 1.3 1.49012e-08
v -0.1 1.3 -0.1
v 0 1.3 -0.1
v -0.1 1.4 -0.1
v 0 1.4 -0.1
v -0.1 1.4 -0.2
v 0 1.4 -0.2
v -0.1 1.6 1.49012e-08
v 0 1.6 1.49012e-08
v -0.1 1.6 -0.1
v 0 1.6 -0.1
v -0.1 1.7 -0.1
v 0 1.7 -0.1
v -0.1 1.7 -0.2
v 0 1.7 -0.2
v -0.1 1.9 1.49012e-08
v 0 1.9 1.49012e-08
v -0.1 1.9 -0.1
v 0 1.9 -0.1
v -0.2 0.6 1.49012e-08
v -0.1 0.6 1.49012e-08
v 0 0.6 1.49012e-08
v 0.1 0.6 1.49012e-08
v -0.2 0.6 -0.1
v -0.1 0.6 -0.1
v 0 0.6 -0.1
v 0.1 0.6 -0.1
v -0.2 0.7 0.1
v -0.1 0.7 0.1
v 0 0.7 0.1
v 0.1 0.7 0.1
v -0.2 0.7 1.49012e-08
v -0.1 0.7 1.49012e-08
v 0 0.7 1.49012e-08
v 0.1 0.7 1.49012e-08
v -0.1 0.7 -0.1
v 0 0.7 -0.1
v -0.1 1 -0.1
v 0 1 -0.1
v -0.1 1 -0.2
v 0 1 -0.2
v -0.1 1.1 1.49012e-08
v 0 1.1 1.49012e-08
v -0.1 1.1 -0.1
v 0 1.1 -0.1
v -0.1 1.3 -0.1
v 0 1.3 -0.1
v -0.1 1.3 -0.2
v 0 1.3 -0.2
v -0.1 1.4 1.49012e-08
v 0 1.4 1.49012e-08
v -0.1 1.4 -0.1
v 0 1.4 -0.1
v -0.1 1.6 -0.1
v 0 1.6 -0.1
v -0.1 1.6 -0.2
v 0 1.6 -0.2
v -0.1 1.7 1.49012e-08
v 0 1.7 1.49012e-08
v -0.1 1.7 -0.1
v 0 1.7 -0.1
v -0.1 1.9 -0.1
v 0 1.9 -0.1
v -0.1 1.9 -0.2
v 0 1.9 -0.2
v -0.1 2 0.1
v 0 2 0.1
v -0.1 2 1.49012e-08
v 0 2 1.49012e-08
v -0.1 2 -0.1
v 0 2 -0.1

# faces
f 3/2/1 2/2/1 1/2/1
f 5/2/1 3/2/1 1/2/1
f 5/2/1 4/2/1 3/2/1
f 6/2/1 4/2/1 5/2/1
f 7/2/1 5/2/1 1/2/1
f 8/2/1 5/2/1 7/2/1
f 11/4/1 10/4/1 9/4/1
f 12/4/1 10/4/1 11/4/1
f 14/2/1 13/2/1 12/2/1
f 15/2/1 13/2/1 14/2/1
f 18/2/1 16/2/1 15/2/1
f 19/2/1 16/2/1 18/2/1
f 21/2/1 18/2/1 17/2/1
f 22/3/1 19/3/1 18/3/1
f 22/2/1 18/2/1 21/2/1
f 23/1/1 21/1/1 20/1/1
f 24/3/1 19/3/1 22/3/1
f 25/3/1 19/3/1 24/3/1
f 26/1/1 23/1/1 20/1/1
f 26/3/1 24/3/1 23/3/1
f 27/3/1 24/3/1 26/3/1
f 29/1/1 26/1/1 20/1/1
f 30/3/1 28/3/1 27/3/1
f 31/3/1 28/3/1 30/3/1
f 32/1/1 29/1/1 20/1/1
f 32/3/1 30/3/1 29/3/1
f 33/3/1 30/3/1 32/3/1
f 35/1/1 32/1/1 20/1/1
f 36/3/1 34/3/1 33/3/1
f 37/3/1 34/3/1 36/3/1
f 38/1/1 35/1/1 20/1/1
f 38/3/1 36/3/1 35/3/1
f 39/3/1 36/3/1 38/3/1
f 41/1/1 38/1/1 20/1/1
f 42/3/1 40/3/1 39/3/1
f 43/3/1 40/3/1 42/3/1
f 44/1/1 41/1/1 20/1/1
f 45/3/1 42/3/1 41/3/1
f 45/1/1 41/1/1 44/1/1
f 46/3/1 42/3/1 45/3/1
f 47/4/2 48/4/2 49/4/2
f 49/4/2 48/4/2 50/4/2
f 50/2/2 51/2/2 52/2/2
f 52/2/2 51/2/2 53/2/2
f 53/2/2 54/2/2 56/2/2
f 56/2/2 54/2/2 57/2/2
f 55/2/2 56/2/2 59/2/2
f 56/3/2 57/3/2 60/3/2
f 59/2/2 56/2/2 60/2/2
f 58/1/2 59/1/2 61/1/2
f 60/3/2 57/3/2 62/3/2
f 62/3/2 57/3/2 63/3/2
f 58/1/2 61/1/2 64/1/2
f 61/3/2 62/3/2 64/3/2
f 64/3/2 62/3/2 65/3/2
f 58/1/2 64/1/2 67/1/2
f 65/3/2 66/3/2 68/3/2
f 68/3/2 66/3/2 69/3/2
f 58/1/2 67/1/2 70/1/2
f 67/3/2 68/3/2 70/3/2
f 70/3/2 68/3/2 71/3/2
f 58/1/2 70/1/2 73/1/2
f 71/3/2 72/3/2 74/3/2
f 74/3/2 72/3/2 75/3/2
f 58/1/2 73/1/2 76/1/2
f 73/3/2 74/3/2 76/3/2
f 76/3/2 74/3/2 77/3/2
f 58/1/2 76/1/2 79/1/2
f 77/3/2 78/3/2 80/3/2
f 80/3/2 78/3/2 81/3/2
f 58/1/2 79/1/2 82/1/2
f 79/3/2 80/3/2 83/3/2
f 82/1/2 79/1/2 83/1/2
f 83/3/2 80/3/2 84/3/2
f 85/2/2 86/2/2 87/2/2
f 85/2/2 87/2/2 89/2/2
f 87/2/2 88/2/2 89/2/2
f 89/2/2 88/2/2 90/2/2
f 85/2/2 89/2/2 91/2/2
f 91/2/2 89/2/2 92/2/2
f 96/2/3 94/2/3 93/2/3
f 97/2/3 94/2/3 96/2/3
f 99/4/3 96/4/3 95/4/3
f 99/4/3 97/4/3 96/4/3
f 100/4/3 97/4/3 99/4/3
f 101/1/3 98/1/3 97/1/3
f 101/4/3 97/4/3 100/4/3
f 102/1/3 98/1/3 101/1/3
f 103/2/3 101/2/3 100/2/3
f 104/2/3 101/2/3 103/2/3
f 113/3/3 106/3/3 105/3/3
f 114/3/3 106/3/3 113/3/3
f 115/3/3 108/3/3 107/3/3
f 116/3/3 108/3/3 115/3/3
f 117/3/3 110/3/3 109/3/3
f 118/3/3 110/3/3 117/3/3
f 119/3/3 112/3/3 111/3/3
f 120/3/3 112/3/3 119/3/3
f 121/2/4 122/2/4 126/2/4
f 126/2/4 122/2/4 127/2/4
f 123/2/4 124/2/4 128/2/4
f 128/2/4 124/2/4 129/2/4
f 125/4/4 126/4/4 137/4/4
f 137/4/4 126/4/4 138/4/4
f 129/1/4 130/1/4 141/1/4
f 141/1/4 130/1/4 142/1/4
f 131/1/4 132/1/4 143/1/4
f 143/1/4 132/1/4 144/1/4
f 133/1/4 134/1/4 145/1/4
f 145/1/4 134/1/4 146/1/4
f 135/1/4 136/1/4 147/1/4
f 147/1/4 136/1/4 148/1/4
f 138/2/4 139/2/4 149/2/4
f 149/2/4 139/2/4 150/2/4
f 140/2/4 141/2/4 151/2/4
f 151/2/4 141/2/4 152/2/4
f 153/2/4 154/2/4 156/2/4
f 156/2/4 154/2/4 157/2/4
f 155/2/4 156/2/4 166/2/4
f 166/2/4 156/2/4 167/2/4
f 158/3/4 159/3/4 169/3/4
f 169/3/4 159/3/4 170/3/4
f 160/3/4 161/3/4 171/3/4
f 171/3/4 161/3/4 172/3/4
f 162/3/4 163/3/4 173/3/4
f 173/3/4 163/3/4 174/3/4
f 164/3/4 165/3/4 175/3/4
f 175/3/4 165/3/4 176/3/4
f 167/2/4 168/2/4 177/2/4
f 177/2/4 168/2/4 178/2/4
f 179/2/4 180/2/4 188/2/4
f 180/3/4 181/3/4 189/3/4
f 188/2/4 180/2/4 189/2/4
f 189/3/4 181/3/4 190/3/4
f 182/3/4 183/3/4 191/3/4
f 191/3/4 183/3/4 192/3/4
f 184/3/4 185/3/4 193/3/4
f 193/3/4 185/3/4 194/3/4
f 186/3/4 187/3/4 195/3/4
f 195/3/4 187/3/4 196/3/4
f 199/4/5 198/4/5 197/4/5
f 200/4/5 198/4/5 199/4/5
f 205/2/5 202/2/5 201/2/5
f 206/2/5 202/2/5 205/2/5
f 207/2/5 204/2/5 203/2/5
f 208/2/5 204/2/5 207/2/5
f 209/2/5 207/2/5 206/2/5
f 210/2/5 207/2/5 209/2/5
f 215/2/5 212/2/5 211/2/5
f 216/2/5 212/2/5 215/2/5
f 217/2/5 214/2/5 213/2/5
f 218/2/5 214/2/5 217/2/5
f 219/2/5 217/2/5 216/2/5
f 220/2/5 217/2/5 219/2/5
f 223/3/5 222/3/5 221/3/5
f 224/3/5 222/3/5 223/3/5
f 227/3/5 226/3/5 225/3/5
f 228/3/5 226/3/5 227/3/5
f 231/3/5 230/3/5 229/3/5
f 232/3/5 230/3/5 231/3/5
f 235/3/5 234/3/5 233/3/5
f 236/3/5 234/3/5 235/3/5
f 239/3/5 238/3/5 237/3/5
f 240/3/5 238/3/5 239/3/5
f 243/3/5 242/3/5 241/3/5
f 244/3/5 242/3/5 243/3/5
f 247/3/5 246/3/5 245/3/5
f 248/3/5 246/3/5 247/3/5
f 249/2/6 250/2/6 253/2/6
f 253/2/6 250/2/6 254/2/6
f 251/2/6 252/2/6 255/2/6
f 255/2/6 252/2/6 256/2/6
f 257/2/6 258/2/6 261/2/6
f 261/2/6 258/2/6 262/2/6
f 259/2/6 260/2/6 263/2/6
f 263/2/6 260/2/6 264/2/6
f 262/2/6 263/2/6 265/2/6
f 265/2/6 263/2/6 266/2/6
f 267/3/6 268/3/6 269/3/6
f 269/3/6 268/3/6 270/3/6
f 271/3/6 272/3/6 273/3/6
f 273/3/6 272/3/6 274/3/6
f 275/3/6 276/3/6 277/3/6
f 277/3/6 276/3/6 278/3/6
f 279/3/6 280/3/6 281/3/6
f 281/3/6 280/3/6 282/3/6
f 283/3/6 284/3/6 285/3/6
f 285/3/6 284/3/6 286/3/6
f 287/3/6 288/3/6 289/3/6
f 289/3/6 288/3/6 290/3/6
f 291/3/6 292/3/6 293/3/6
f 293/3/6 292/3/6 294/3/6
f 295/1/6 296/1/6 297/1/6
f 297/1/6 296/1/6 298/1/6
f 297/3/6 298/3/6 299/3/6
f 299/3/6 298/3/6 300/3/6
